<svg width="15" height="15" viewBox="0 0 15 15" fill="none" xmlns="http://www.w3.org/2000/svg">
<path d="M4.72031 0C3.35156 0 2.11625 0.111875 1.23844 0.2875C0.799375 0.375312 0.449062 0.480938 0.231875 0.584375C0.123125 0.635625 0.049375 0.687187 0.016875 0.719062C0.049375 0.750937 0.123125 0.8025 0.231875 0.85375C0.449062 0.956562 0.799375 1.06219 1.23844 1.15C2.11625 1.32562 3.35156 1.4375 4.72031 1.4375C6.08594 1.4375 7.32344 1.32562 8.19844 1.14937C8.63594 1.06156 8.98594 0.955937 9.20469 0.853125C9.31406 0.801875 9.38594 0.750312 9.42031 0.718437C9.38594 0.686562 9.31406 0.635 9.20469 0.58375C8.98594 0.480938 8.63594 0.375312 8.19844 0.2875C7.32031 0.111875 6.08594 0 4.72031 0ZM12.0703 0.0759374C11.9766 0.0759374 11.8766 0.0790625 11.7828 0.0840625C11.1891 0.119375 10.5516 0.266562 9.92969 0.463437C9.97031 0.538437 10.0016 0.624375 10.0016 0.718437C10.0016 0.861562 9.93281 0.98625 9.85156 1.08125C10.5266 0.852812 11.2203 0.680937 11.8141 0.645312C12.4953 0.604687 13.0234 0.736562 13.3297 1.0925C13.8203 1.65812 13.8234 2.22812 13.5578 2.94219C13.2922 3.65469 12.7297 4.46094 12.1109 5.29531C11.4953 6.13281 10.8266 7.00156 10.3672 7.88594C9.90156 8.77344 9.63594 9.70156 9.90156 10.6172C10.2109 11.7047 11.4078 12.6047 12.4922 13.2922C13.5828 13.9828 14.6016 14.4297 14.6016 14.4297L14.8266 13.9172C14.8266 13.9172 13.8422 13.4797 12.7922 12.8172C11.7453 12.1547 10.6641 11.2391 10.4453 10.4609H10.4391C10.2328 9.74219 10.4328 8.97031 10.8672 8.14844C11.2922 7.32344 11.9453 6.47344 12.5641 5.62969C13.1859 4.78906 13.7797 3.96094 14.0859 3.13906C14.3922 2.31187 14.3766 1.445 13.7547 0.724687C13.3453 0.251562 12.7328 0.0803125 12.0672 0.075625L12.0703 0.0759374ZM4.72031 0.34375C5.25075 0.34375 5.75945 0.370089 6.13453 0.416973C6.5096 0.463857 6.72031 0.527446 6.72031 0.59375C6.72031 0.660054 6.5096 0.723643 6.13453 0.770527C5.75945 0.817411 5.25075 0.84375 4.72031 0.84375C4.45741 0.843801 4.197 0.837373 3.95399 0.824832C3.71097 0.812291 3.49013 0.793885 3.30408 0.770665C3.11803 0.747445 2.97043 0.719868 2.86973 0.689511C2.76902 0.659154 2.71719 0.626613 2.71719 0.59375C2.71719 0.560887 2.76902 0.528346 2.86973 0.497989C2.97043 0.467632 3.11803 0.440055 3.30408 0.416835C3.49013 0.393615 3.71097 0.375209 3.95399 0.362668C4.197 0.350127 4.45741 0.343699 4.72031 0.34375ZM1 1.67469V2.23562C2.03562 2.24125 3.06406 2.14156 3.98906 1.98937C2.88281 1.95781 1.89469 1.855 1.12812 1.70156C1.08437 1.69281 1.04219 1.68375 1 1.67469ZM8.43906 1.67469C8.39531 1.68375 8.35469 1.69281 8.30781 1.70156C7.82344 1.79844 7.25156 1.875 6.61719 1.92625V1.92938C5.33906 2.375 3.20156 2.81094 1 2.79844V3.15156C3.60469 3.22969 6.08281 2.77344 8.43906 2.1325V1.67469ZM8.43906 2.71719C6.09844 3.34219 3.61719 3.79531 1 3.71719V4.13281C3.55156 4.17344 6.03906 3.98906 8.43906 3.39844V2.71719ZM8.43906 3.97656C6.02031 4.55781 3.53594 4.73594 1 4.69531V5.05469C3.76094 5.24531 6.35156 5.27344 8.43906 4.84219V3.97656ZM8.43906 5.41719C6.28906 5.84219 3.71719 5.80469 1 5.61719V5.99219C3.28281 6.54219 5.82969 6.76094 8.43906 6.91094V6.42031L6.38594 6.31719L8.43906 6.02969V5.41719ZM1 6.57031V7.32344C3.81406 8.01406 6.09531 8.13594 8.43906 8.14219V7.47656C5.86094 7.32656 3.31406 7.11406 1 6.57031ZM1 7.90156V8.61406L3.59844 8.97656L1 9.10781V9.57031C3.63281 9.61406 6.19219 9.56094 8.43906 9.02969V8.70469C6.11406 8.70156 3.80781 8.57969 1 7.90156ZM8.43906 9.60781C6.14531 10.1297 3.59219 10.1766 1 10.1328V10.8703C4.27969 11.1016 6.92969 10.6828 8.43906 10.2172V9.60781ZM8.43906 10.8016C6.83281 11.2766 4.22031 11.6609 1 11.4359V12.2328C3.79219 12.2672 6.50156 12.1641 8.43906 11.3016V10.8016ZM8.43906 11.9141C6.38906 12.7516 3.75156 12.8297 1.0675 12.7984C2.00656 13.1266 3.35781 13.2984 4.72031 13.2953C6.10781 13.2922 7.49531 13.1047 8.43906 12.7703V11.9141ZM0.4375 13.1422C0.373125 13.1734 0.315 13.2078 0.264687 13.2391C0.0509375 13.3797 0 13.4891 0 13.5391C0 13.5891 0.0509375 13.6984 0.264687 13.8391C0.478437 13.9766 0.822812 14.1203 1.25781 14.2391C2.12719 14.4766 3.35781 14.6297 4.72031 14.6297C6.07969 14.6297 7.31094 14.4766 8.18281 14.2391C8.61719 14.1203 8.96094 13.9766 9.17344 13.8391C9.38594 13.6984 9.43906 13.5891 9.43906 13.5391C9.43906 13.4891 9.38594 13.3797 9.17344 13.2391C9.12031 13.2078 9.06406 13.1734 9.00156 13.1422V13.1609L8.82344 13.2328C7.76406 13.6516 6.24531 13.8547 4.72031 13.8578C3.19531 13.8609 1.67375 13.6672 0.611875 13.2297L0.4375 13.1578V13.1422Z" fill="black"/>
</svg>
