<svg width="22" height="19" viewBox="0 0 22 19" fill="none" xmlns="http://www.w3.org/2000/svg">
<path d="M3 13C2.16667 13 1.45833 12.7083 0.875 12.125C0.291667 11.5417 0 10.8333 0 10C0 9.16667 0.291667 8.45833 0.875 7.875C1.45833 7.29167 2.16667 7 3 7V5C3 4.45 3.196 3.97933 3.588 3.588C3.98 3.19667 4.45067 3.00067 5 3H8C8 2.16667 8.29167 1.45833 8.875 0.875C9.45833 0.291667 10.1667 0 11 0C11.8333 0 12.5417 0.291667 13.125 0.875C13.7083 1.45833 14 2.16667 14 3H17C17.55 3 18.021 3.196 18.413 3.588C18.805 3.98 19.0007 4.45067 19 5V7C19.8333 7 20.5417 7.29167 21.125 7.875C21.7083 8.45833 22 9.16667 22 10C22 10.8333 21.7083 11.5417 21.125 12.125C20.5417 12.7083 19.8333 13 19 13V17C19 17.55 18.8043 18.021 18.413 18.413C18.0217 18.805 17.5507 19.0007 17 19H5C4.45 19 3.97933 18.8043 3.588 18.413C3.19667 18.0217 3.00067 17.5507 3 17V13ZM8 11C8.41667 11 8.771 10.8543 9.063 10.563C9.355 10.2717 9.50067 9.91733 9.5 9.5C9.49933 9.08267 9.35367 8.72867 9.063 8.438C8.77233 8.14733 8.418 8.00133 8 8C7.582 7.99867 7.228 8.14467 6.938 8.438C6.648 8.73133 6.502 9.08533 6.5 9.5C6.498 9.91467 6.644 10.269 6.938 10.563C7.232 10.857 7.586 11.0027 8 11ZM14 11C14.4167 11 14.771 10.8543 15.063 10.563C15.355 10.2717 15.5007 9.91733 15.5 9.5C15.4993 9.08267 15.3537 8.72867 15.063 8.438C14.7723 8.14733 14.418 8.00133 14 8C13.582 7.99867 13.228 8.14467 12.938 8.438C12.648 8.73133 12.502 9.08533 12.5 9.5C12.498 9.91467 12.644 10.269 12.938 10.563C13.232 10.857 13.586 11.0027 14 11ZM7 15H15V13H7V15Z" fill="black"/>
</svg>
