<svg width="20" height="20" viewBox="0 0 20 20" fill="none" xmlns="http://www.w3.org/2000/svg">
<path d="M17 4C17.2652 4 17.5196 3.89464 17.7071 3.70711C17.8946 3.51957 18 3.26522 18 3C18 2.73478 17.8946 2.48043 17.7071 2.29289C17.5196 2.10536 17.2652 2 17 2C16.7348 2 16.4804 2.10536 16.2929 2.29289C16.1054 2.48043 16 2.73478 16 3C16 3.26522 16.1054 3.51957 16.2929 3.70711C16.4804 3.89464 16.7348 4 17 4ZM17 0C17.7956 0 18.5587 0.316071 19.1213 0.87868C19.6839 1.44129 20 2.20435 20 3V9H16V5H4V9H0V3C0 2.20435 0.316071 1.44129 0.87868 0.87868C1.44129 0.316071 2.20435 0 3 0H17ZM16 16.25C16 16.63 15.79 16.96 15.47 17.13L10.57 19.82C10.4 19.94 10.21 20 10 20C9.79 20 9.59 19.94 9.43 19.82L4.53 17.13C4.36961 17.0458 4.23538 16.9193 4.14193 16.7641C4.04848 16.609 3.99939 16.4311 4 16.25V11C4 10.62 4.21 10.29 4.53 10.12L9.43 7.68C9.59 7.56 9.79 7.5 10 7.5C10.21 7.5 10.4 7.56 10.57 7.68L15.47 10.12C15.79 10.29 16 10.62 16 11V16.25ZM10 9.65L7.04 11L10 12.6L12.96 11L10 9.65ZM6 15.66L9 17.29V14.33L6 12.71V15.66ZM14 15.66V12.71L11 14.33V17.29L14 15.66Z" fill="black"/>
</svg>
